<svg width="206.88" height="41.387" viewBox="0 0 206.88 41.387" xmlns="http://www.w3.org/2000/svg"><g id="svgGroup" stroke-linecap="round" fill-rule="nonzero" font-size="9pt" stroke="#ffffff" stroke-width="0.5" fill="#ffffff" style="stroke:#000000;stroke-width:0.5;fill:#000000"><path d="M 65.2 29.824 L 65.122 29.824 L 65.122 38.145 A 1.164 1.164 0 0 1 64.927 38.867 A 13.764 13.764 0 0 1 62.525 41.191 A 0.874 0.874 0 0 1 62.036 41.387 A 0.81 0.81 0 0 1 61.548 41.191 A 15.442 15.442 0 0 1 60.132 39.98 A 9.934 9.934 0 0 1 59.146 38.867 A 1.164 1.164 0 0 1 58.95 38.145 L 58.95 14.063 A 1.164 1.164 0 0 1 59.146 13.34 A 9.934 9.934 0 0 1 60.132 12.227 Q 60.708 11.66 61.548 11.016 A 0.855 0.855 0 0 1 62.075 10.82 A 0.914 0.914 0 0 1 62.603 11.016 Q 63.423 11.66 64.009 12.246 A 9.826 9.826 0 0 1 65.044 13.457 L 65.142 13.457 A 8.256 8.256 0 0 1 66.157 12.461 A 6.178 6.178 0 0 1 68.101 11.426 A 9.998 9.998 0 0 1 71.392 10.977 Q 74.243 10.977 76.089 12.256 A 7.671 7.671 0 0 1 78.843 15.771 A 13.54 13.54 0 0 1 79.751 20.898 A 14.228 14.228 0 0 1 78.687 26.523 Q 77.622 29.023 75.552 30.488 Q 73.482 31.953 70.415 31.953 A 7.96 7.96 0 0 1 67.808 31.592 Q 66.782 31.23 66.167 30.732 A 7.5 7.5 0 0 1 65.2 29.824 Z M 65.122 18.301 L 65.122 22.539 A 5.036 5.036 0 0 0 66.099 25.703 A 3.421 3.421 0 0 0 68.989 26.973 Q 71.099 26.973 72.261 25.498 Q 73.423 24.023 73.423 21.23 Q 73.423 15.957 69.087 15.957 A 4.108 4.108 0 0 0 66.372 16.709 A 4.555 4.555 0 0 0 65.122 18.301 Z M 10.825 31.465 L 4.829 31.465 A 7.222 7.222 0 0 1 1.773 30.957 A 2.64 2.64 0 0 1 0.366 29.297 A 10.555 10.555 0 0 1 0.005 26.23 L 0.005 8.691 A 10.623 10.623 0 0 1 0.366 5.596 A 2.605 2.605 0 0 1 1.773 3.955 A 7.348 7.348 0 0 1 4.829 3.457 L 10.825 3.457 Q 15.025 3.457 18.179 4.707 A 9.734 9.734 0 0 1 23.091 8.936 A 14.86 14.86 0 0 1 24.821 15.845 A 28.336 28.336 0 0 1 24.849 17.109 A 18.233 18.233 0 0 1 23.467 24.718 A 10.796 10.796 0 0 1 23.091 25.459 A 10.45 10.45 0 0 1 18.179 30.039 A 17.705 17.705 0 0 1 10.825 31.465 Z M 9.4 8.594 L 8.54 8.594 Q 7.251 8.594 6.782 9.141 A 2.904 2.904 0 0 0 6.314 11.016 L 6.314 23.906 A 2.953 2.953 0 0 0 6.782 25.781 A 2.203 2.203 0 0 0 8.54 26.348 L 9.439 26.348 A 9.388 9.388 0 0 0 15.913 24.297 Q 18.208 22.246 18.208 17.188 A 10.841 10.841 0 0 0 17.163 11.943 Q 16.118 10.078 14.146 9.336 A 13.505 13.505 0 0 0 9.4 8.594 Z M 39.243 29.102 L 41.236 26.152 A 0.626 0.626 0 0 1 41.727 25.819 A 0.718 0.718 0 0 1 42.212 26.074 Q 42.779 26.621 43.745 27.139 Q 44.712 27.656 46.157 27.656 A 4.509 4.509 0 0 0 48.277 27.217 A 1.385 1.385 0 0 0 49.107 25.937 A 1.295 1.295 0 0 0 48.736 24.98 Q 48.364 24.609 47.427 24.219 A 60.868 60.868 0 0 0 44.81 23.223 A 10.134 10.134 0 0 1 41.06 21.055 Q 39.79 19.785 39.79 17.344 Q 39.79 15.098 41.031 13.691 A 7.219 7.219 0 0 1 44.214 11.631 A 12.615 12.615 0 0 1 48.267 10.977 A 10.756 10.756 0 0 1 51.88 11.412 A 2.816 2.816 0 0 1 52.027 11.475 A 6.802 6.802 0 0 1 53.423 12.246 Q 53.716 12.5 53.833 12.832 Q 54.087 13.594 54.224 14.844 A 1.896 1.896 0 0 1 54.235 15.047 A 0.771 0.771 0 0 1 53.853 15.801 Q 53.618 15.938 53.111 16.094 A 14.669 14.669 0 0 1 52.095 16.367 A 3.739 3.739 0 0 1 51.333 16.484 A 0.344 0.344 0 0 1 51.167 16.436 A 2.075 2.075 0 0 1 50.864 16.191 Q 50.611 15.938 49.995 15.605 Q 49.38 15.273 48.306 15.273 A 4.074 4.074 0 0 0 46.538 15.615 Q 45.825 15.957 45.825 16.816 A 1.504 1.504 0 0 0 46.734 18.223 A 26.733 26.733 0 0 0 49.732 19.434 Q 51.372 20 52.593 20.674 A 4.969 4.969 0 0 1 54.478 22.432 A 5.557 5.557 0 0 1 55.142 25.352 A 5.548 5.548 0 0 1 53.843 29.189 A 7.405 7.405 0 0 1 50.523 31.299 A 13.645 13.645 0 0 1 46.294 31.953 A 14.316 14.316 0 0 1 42.827 31.602 A 8.357 8.357 0 0 1 40.62 30.752 A 9.207 9.207 0 0 1 39.322 29.844 A 0.546 0.546 0 0 1 39.124 29.445 A 0.624 0.624 0 0 1 39.243 29.102 Z M 202.036 23.34 L 193.657 23.34 Q 193.814 25.352 195.132 26.406 A 5.581 5.581 0 0 0 198.716 27.461 A 6.534 6.534 0 0 0 201.597 26.924 A 11.663 11.663 0 0 0 203.111 26.074 A 1.279 1.279 0 0 1 203.888 25.819 A 1.491 1.491 0 0 1 203.95 25.82 A 5.576 5.576 0 0 1 205.015 25.967 Q 205.708 26.113 206.392 26.504 A 0.776 0.776 0 0 1 206.88 27.207 A 3.825 3.825 0 0 1 206.782 27.93 Q 206.724 28.203 206.587 28.721 Q 206.45 29.238 206.236 29.688 A 1.344 1.344 0 0 1 205.864 30.098 A 11.959 11.959 0 0 1 204.605 30.82 Q 203.736 31.27 202.232 31.611 A 17.619 17.619 0 0 1 198.423 31.953 A 14.28 14.28 0 0 1 192.681 30.889 A 8.066 8.066 0 0 1 188.892 27.578 Q 187.544 25.332 187.544 21.777 A 11.652 11.652 0 0 1 189.619 14.459 A 7.949 7.949 0 0 1 190.279 13.711 A 9.82 9.82 0 0 1 197.544 10.977 A 10.772 10.772 0 0 1 202.534 12.031 A 7.387 7.387 0 0 1 205.64 14.941 A 8.364 8.364 0 0 1 206.704 19.18 Q 206.704 21.504 205.513 22.422 Q 204.322 23.34 202.036 23.34 Z M 193.618 19.336 L 199.986 19.336 Q 200.982 19.336 200.982 18.418 A 3.324 3.324 0 0 0 200.113 16.084 A 3.366 3.366 0 0 0 197.505 15.137 A 3.222 3.222 0 0 0 194.722 16.348 Q 193.833 17.559 193.618 19.336 Z M 101.216 19.512 L 101.216 30.566 A 1.003 1.003 0 0 1 101.011 31.201 A 0.827 0.827 0 0 1 100.318 31.465 L 97.388 31.465 Q 97.075 31.465 96.831 31.377 A 1.101 1.101 0 0 1 96.372 31.035 L 95.161 29.473 L 95.025 29.473 A 5.078 5.078 0 0 1 92.613 31.367 A 9.614 9.614 0 0 1 89.126 31.953 Q 86.255 31.953 84.566 30.342 A 5.848 5.848 0 0 1 82.876 25.898 Q 82.876 24.434 83.413 23.174 A 5.375 5.375 0 0 1 85.288 20.947 Q 86.626 19.98 89.038 19.395 A 30.13 30.13 0 0 1 95.2 18.711 A 3.25 3.25 0 0 0 94.312 16.152 Q 93.423 15.371 91.646 15.371 Q 90.044 15.371 89.029 15.918 Q 88.013 16.465 87.759 16.66 A 0.763 0.763 0 0 1 87.247 16.848 A 1.022 1.022 0 0 1 87.095 16.836 A 6.839 6.839 0 0 1 85.972 16.563 A 35.084 35.084 0 0 1 84.693 16.113 A 0.967 0.967 0 0 1 84.478 15.986 A 0.362 0.362 0 0 1 84.341 15.723 A 1.907 1.907 0 0 1 84.361 15.479 A 10.102 10.102 0 0 1 84.458 14.941 A 15.212 15.212 0 0 1 84.693 13.975 Q 84.849 13.398 84.986 13.086 Q 85.161 12.754 85.572 12.461 Q 85.904 12.188 87.583 11.582 A 14.658 14.658 0 0 1 92.249 10.977 A 32.748 32.748 0 0 1 92.447 10.977 A 9.355 9.355 0 0 1 98.777 12.883 Q 101.216 15.011 101.216 19.512 Z M 95.161 24.609 L 95.161 22.441 A 14.736 14.736 0 0 0 91.089 22.861 Q 89.732 23.281 89.282 23.955 A 2.573 2.573 0 0 0 88.833 25.41 Q 88.833 26.543 89.536 26.982 A 3.22 3.22 0 0 0 91.275 27.422 Q 93.072 27.422 93.989 26.504 Q 94.907 25.586 95.161 24.609 Z M 139.712 19.512 L 139.712 30.566 A 1.003 1.003 0 0 1 139.507 31.201 A 0.827 0.827 0 0 1 138.814 31.465 L 135.884 31.465 Q 135.572 31.465 135.327 31.377 A 1.101 1.101 0 0 1 134.868 31.035 L 133.657 29.473 L 133.521 29.473 A 5.078 5.078 0 0 1 131.109 31.367 A 9.614 9.614 0 0 1 127.622 31.953 Q 124.751 31.953 123.062 30.342 A 5.848 5.848 0 0 1 121.372 25.898 Q 121.372 24.434 121.909 23.174 A 5.375 5.375 0 0 1 123.784 20.947 Q 125.122 19.98 127.534 19.395 A 30.13 30.13 0 0 1 133.697 18.711 A 3.25 3.25 0 0 0 132.808 16.152 Q 131.919 15.371 130.142 15.371 Q 128.54 15.371 127.525 15.918 Q 126.509 16.465 126.255 16.66 A 0.763 0.763 0 0 1 125.743 16.848 A 1.022 1.022 0 0 1 125.591 16.836 A 6.839 6.839 0 0 1 124.468 16.563 A 35.084 35.084 0 0 1 123.189 16.113 A 0.967 0.967 0 0 1 122.974 15.986 A 0.362 0.362 0 0 1 122.837 15.723 A 1.907 1.907 0 0 1 122.857 15.479 A 10.102 10.102 0 0 1 122.954 14.941 A 15.212 15.212 0 0 1 123.189 13.975 Q 123.345 13.398 123.482 13.086 Q 123.657 12.754 124.068 12.461 Q 124.4 12.188 126.079 11.582 A 14.658 14.658 0 0 1 130.745 10.977 A 32.748 32.748 0 0 1 130.943 10.977 A 9.355 9.355 0 0 1 137.273 12.883 Q 139.712 15.011 139.712 19.512 Z M 133.657 24.609 L 133.657 22.441 A 14.736 14.736 0 0 0 129.585 22.861 Q 128.228 23.281 127.779 23.955 A 2.573 2.573 0 0 0 127.329 25.41 Q 127.329 26.543 128.032 26.982 A 3.22 3.22 0 0 0 129.771 27.422 Q 131.568 27.422 132.486 26.504 Q 133.404 25.586 133.657 24.609 Z M 157.818 25.176 L 157.818 16.016 L 155.611 16.016 Q 155.025 16.016 154.8 15.771 A 1.218 1.218 0 0 1 154.575 14.941 L 154.575 12.539 A 1.218 1.218 0 0 1 154.8 11.709 Q 155.025 11.465 155.611 11.465 L 157.818 11.465 L 157.818 8.32 A 1.164 1.164 0 0 1 158.013 7.598 A 13.764 13.764 0 0 1 160.415 5.273 A 0.874 0.874 0 0 1 160.904 5.078 A 0.734 0.734 0 0 1 161.372 5.273 Q 162.212 5.918 162.788 6.484 A 9.934 9.934 0 0 1 163.775 7.598 A 1.164 1.164 0 0 1 163.97 8.32 L 163.97 11.465 L 167.427 11.465 Q 168.013 11.465 168.238 11.709 A 1.218 1.218 0 0 1 168.462 12.539 L 168.462 14.941 A 1.218 1.218 0 0 1 168.238 15.771 Q 168.013 16.016 167.427 16.016 L 163.97 16.016 L 163.97 24.102 A 2.458 2.458 0 0 0 166.236 27.227 Q 166.587 27.227 166.88 27.158 Q 167.173 27.09 167.388 27.012 A 1.554 1.554 0 0 1 167.888 26.887 A 0.334 0.334 0 0 1 167.964 26.895 A 0.602 0.602 0 0 1 168.267 27.324 L 169.4 30.352 Q 169.575 30.84 169.165 31.055 A 18.751 18.751 0 0 1 167.749 31.572 Q 166.626 31.953 164.341 31.953 A 5.782 5.782 0 0 1 157.828 25.695 A 13.28 13.28 0 0 1 157.818 25.176 Z M 112.661 13.73 L 112.661 15.176 L 112.739 15.176 A 5.339 5.339 0 0 1 118.013 11.113 A 5.36 5.36 0 0 1 118.814 11.162 A 3.098 3.098 0 0 1 119.243 11.25 A 0.422 0.422 0 0 1 119.536 11.699 L 119.536 16.406 Q 119.536 17.012 118.833 16.738 A 4.833 4.833 0 0 0 118.159 16.533 A 5.399 5.399 0 0 0 116.939 16.426 Q 114.927 16.426 113.794 17.9 A 6.433 6.433 0 0 0 112.661 21.914 L 112.661 30.43 Q 112.661 31.016 112.417 31.24 A 1.218 1.218 0 0 1 111.587 31.465 L 107.564 31.465 A 1.218 1.218 0 0 1 106.734 31.24 Q 106.489 31.016 106.489 30.43 L 106.489 14.063 A 1.164 1.164 0 0 1 106.685 13.34 A 9.934 9.934 0 0 1 107.671 12.227 Q 108.247 11.66 109.087 11.016 Q 109.243 10.898 109.4 10.859 A 1.148 1.148 0 0 1 109.673 10.82 A 0.937 0.937 0 0 1 110.22 11.016 A 11.848 11.848 0 0 1 112.486 13.184 A 0.886 0.886 0 0 1 112.661 13.73 Z M 178.833 13.73 L 178.833 15.176 L 178.911 15.176 A 5.339 5.339 0 0 1 184.185 11.113 A 5.36 5.36 0 0 1 184.986 11.162 A 3.098 3.098 0 0 1 185.415 11.25 A 0.422 0.422 0 0 1 185.708 11.699 L 185.708 16.406 Q 185.708 17.012 185.005 16.738 A 4.833 4.833 0 0 0 184.331 16.533 A 5.399 5.399 0 0 0 183.111 16.426 Q 181.099 16.426 179.966 17.9 A 6.433 6.433 0 0 0 178.833 21.914 L 178.833 30.43 Q 178.833 31.016 178.589 31.24 A 1.218 1.218 0 0 1 177.759 31.465 L 173.736 31.465 A 1.218 1.218 0 0 1 172.906 31.24 Q 172.661 31.016 172.661 30.43 L 172.661 14.063 A 1.164 1.164 0 0 1 172.857 13.34 A 9.934 9.934 0 0 1 173.843 12.227 Q 174.419 11.66 175.259 11.016 Q 175.415 10.898 175.572 10.859 A 1.148 1.148 0 0 1 175.845 10.82 A 0.937 0.937 0 0 1 176.392 11.016 A 11.848 11.848 0 0 1 178.657 13.184 A 0.886 0.886 0 0 1 178.833 13.73 Z M 35.415 12.5 L 35.415 30.43 Q 35.415 31.016 35.171 31.24 A 1.218 1.218 0 0 1 34.341 31.465 L 30.318 31.465 A 1.218 1.218 0 0 1 29.488 31.24 Q 29.243 31.016 29.243 30.43 L 29.243 12.5 Q 29.243 11.914 29.488 11.689 A 1.218 1.218 0 0 1 30.318 11.465 L 34.341 11.465 A 1.218 1.218 0 0 1 35.171 11.689 Q 35.415 11.914 35.415 12.5 Z M 151.157 12.5 L 151.157 30.43 Q 151.157 31.016 150.913 31.24 A 1.218 1.218 0 0 1 150.083 31.465 L 146.06 31.465 A 1.218 1.218 0 0 1 145.23 31.24 Q 144.986 31.016 144.986 30.43 L 144.986 12.5 Q 144.986 11.914 145.23 11.689 A 1.218 1.218 0 0 1 146.06 11.465 L 150.083 11.465 A 1.218 1.218 0 0 1 150.913 11.689 Q 151.157 11.914 151.157 12.5 Z M 148.032 5.176 L 143.345 9.082 L 140.864 6.914 L 143.755 3.535 A 33.392 33.392 0 0 1 146.197 0.879 Q 147.134 0 148.032 0 A 2.883 2.883 0 0 1 149.917 0.898 A 40.241 40.241 0 0 1 152.505 3.574 L 155.259 6.602 L 152.818 9.004 L 148.032 5.176 Z M 28.501 4.453 A 89.896 89.896 0 0 1 28.911 3.945 Q 29.458 3.32 30.181 2.627 A 39.982 39.982 0 0 1 31.646 1.289 A 1.392 1.392 0 0 1 32.349 0.918 A 1.48 1.48 0 0 1 33.072 1.289 Q 34.654 2.656 35.767 3.945 Q 36.021 4.238 36.187 4.443 A 0.711 0.711 0 0 1 36.353 4.902 A 0.673 0.673 0 0 1 36.187 5.352 A 46.354 46.354 0 0 0 35.747 5.879 A 23.775 23.775 0 0 1 34.517 7.178 A 24.915 24.915 0 0 1 33.072 8.496 Q 32.798 8.73 32.642 8.799 Q 32.486 8.867 32.349 8.867 Q 32.212 8.867 32.066 8.799 Q 31.919 8.73 31.607 8.496 Q 30.825 7.871 30.142 7.178 A 24.424 24.424 0 0 1 28.911 5.84 A 38.514 38.514 0 0 0 28.501 5.342 Q 28.345 5.156 28.345 4.902 A 0.699 0.699 0 0 1 28.501 4.453 Z"/></g></svg>